<?xml version="1.0" encoding="UTF-8"?>
<svg id="Layer_1" xmlns="http://www.w3.org/2000/svg" version="1.1" viewBox="90 655 2220 690">
  <!-- Generator: Adobe Illustrator 30.2.1, SVG Export Plug-In . SVG Version: 2.1.1 Build 1)  -->
  <defs>
    <style>
      .st0 {
        fill: #526b31;
      }
    </style>
  </defs>
  <g>
    <g transform="translate(812.7, 1180) scale(1.35) translate(-812.7, -1180)">
      <path class="st0" d="M842.94,1162.24l.68.16c.71.17.88.37.91.4.03.04.19.29.19,1.13v12.44h-24.18v-12.44c0-.84.16-1.08.18-1.1.03-.04.22-.24.94-.43l.66-.17v-2.45h-9.67v2.46l.68.16c.71.17.88.37.91.4.03.04.19.3.19,1.13v31.32c0,.85-.16,1.09-.17,1.11-.02.02-.18.23-.94.42l-.66.17v2.45h9.67v-2.45l-.66-.17c-.75-.19-.92-.39-.94-.42s-.17-.26-.17-1.11v-13.52h24.18v13.52c0,.84-.16,1.08-.18,1.1-.03.04-.21.24-.94.43l-.66.17v2.45h9.67v-2.45l-.66-.17c-.72-.19-.9-.39-.93-.44-.03-.04-.19-.29-.19-1.1v-31.32c0-.84.16-1.08.18-1.1.03-.04.21-.24.94-.43l.66-.17v-2.45h-9.67v2.46Z"/>
      <path class="st0" d="M901.31,1170.45c-3.53-3.01-8.22-4.54-13.95-4.54-3.23.04-6.09.52-8.48,1.42-3.53,1.32-6.31,3.45-8.27,6.35-1.85,2.74-2.79,5.88-2.79,9.32,0,5.09,1.92,9.31,5.72,12.54,3.53,3.01,8.2,4.54,13.89,4.54,7.64,0,13.29-2.61,16.79-7.76,1.87-2.74,2.82-5.8,2.82-9.1,0-5.26-1.93-9.56-5.72-12.77ZM897.76,1191.19h0c-2.57,2.59-6.05,3.9-10.33,3.9s-7.76-1.31-10.34-3.9c-2.25-2.25-3.35-4.94-3.35-8.2s1.1-5.95,3.35-8.2c2.57-2.59,6.03-3.9,10.27-3.9,4.31.04,7.81,1.35,10.41,3.91,2.25,2.2,3.34,4.93,3.34,8.36,0,3.15-1.1,5.78-3.35,8.03Z"/>
      <path class="st0" d="M949.24,1182.12c-1.1-.62-2.43-1.07-3.95-1.35-1.49-.27-3.6-.45-6.46-.54-3.3-.13-5.49-.24-6.5-.33-.94-.09-1.83-.27-2.63-.54-.7-.24-1.24-.63-1.65-1.2-.41-.56-.61-1.18-.61-1.88,0-1.64.86-2.91,2.61-3.86,1.91-1.02,4.3-1.53,7.08-1.53,3.5,0,6.49.66,8.92,1.95.96.5,1.25.81,1.33.91,0,.12-.04.38-.12.88l-.11.64,2.04,1.02,3.85-7.63-2.23-1.07-.41.69c-.17.29-.3.45-.38.54-.12-.04-.31-.11-.59-.23-4.02-1.78-8.08-2.68-12.06-2.68-4.4,0-8.1.92-10.98,2.74-2.96,1.87-4.46,4.48-4.46,7.76,0,1.87.51,3.52,1.54,4.91,1.01,1.33,2.34,2.31,3.98,2.91,1.22.44,2.53.76,3.9.95,1.34.18,3.57.34,6.63.46,2.56.09,4.31.19,5.21.3.87.1,1.66.28,2.34.51.65.24,1.16.62,1.55,1.18.39.56.59,1.17.59,1.88,0,.79-.24,1.53-.74,2.27-.51.76-1.19,1.35-2.06,1.8-1.94,1-4.42,1.51-7.39,1.51-3.26,0-6.46-.82-9.49-2.42-1.79-.95-2.24-1.43-2.35-1.58.01-.08.04-.21.11-.43l.27-1.08-1.99-1.16-4.4,7.38,1.99,1.3.5-.59c.31-.36.5-.53.61-.62.05.03.11.06.2.12,2.22,1.25,4.65,2.25,7.23,2.97,2.59.72,5.1,1.09,7.46,1.09,4.83,0,8.77-1.07,11.73-3.19,2.58-1.87,3.89-4.41,3.89-7.57,0-1.51-.35-2.93-1.05-4.21-.71-1.3-1.69-2.31-2.92-3Z"/>
      <path class="st0" d="M993.73,1168.17c-1.03-.63-2.2-1.06-3.48-1.28-1.23-.21-2.98-.32-5.35-.32h-18.08v2.4l.66.17c.66.17.9.35.97.42.09.09.14.3.14.58v25.5c0,.33-.06.57-.17.7-.06.07-.29.27-.96.45l-.65.18v2.44h9.2v-2.43l-.63-.19c-.62-.18-.83-.37-.89-.44-.11-.13-.17-.38-.17-.71v-10.19h10.58c2.35,0,4.09-.1,5.31-.32,1.27-.22,2.45-.66,3.49-1.3,1.31-.77,2.33-1.86,3.04-3.24.7-1.36,1.06-2.9,1.06-4.57s-.36-3.22-1.07-4.6c-.72-1.41-1.73-2.51-3-3.25ZM990.68,1179.68h0c-.56.38-1.26.63-2.07.77-.89.15-2.32.22-4.24.22h-10.05v-9.31h10.05c1.94,0,3.37.07,4.25.22.81.14,1.5.39,2.06.76,1.04.7,1.55,1.9,1.55,3.65s-.51,2.99-1.55,3.68Z"/>
      <path class="st0" d="M1011.14,1168.88l.66.17c.73.19.91.39.94.43.02.02.18.26.18,1.1v24.8c0,.8-.16,1.06-.19,1.1-.03.04-.21.25-.93.44l-.66.17v2.31h9.28v-2.31l-.66-.17c-.72-.19-.9-.4-.93-.44-.03-.04-.19-.29-.19-1.1v-24.8c0-.84.16-1.08.18-1.1.03-.04.21-.24.94-.43l.66-.17v-2.31h-9.28v2.31Z"/>
      <path class="st0" d="M1062.46,1165.62c-.19.73-.39.91-.43.94h0s-.26.18-1.1.18h-24.22c-.84,0-1.08-.16-1.1-.18-.04-.03-.24-.21-.43-.94l-.17-.66h-2.31v8.34h2.31l.17-.66c.19-.75.4-.92.43-.94.02-.02.26-.18,1.11-.18h9.25v23.87c0,.8-.16,1.06-.19,1.1-.03.04-.21.25-.93.44l-.66.17v2.31h9.28v-2.31l-.66-.17c-.75-.19-.91-.4-.93-.42-.03-.04-.18-.3-.18-1.11v-23.87h9.25c.81,0,1.06.15,1.1.18.04.03.24.21.43.93l.17.66h2.31v-8.34h-2.31l-.17.66Z"/>
      <path class="st0" d="M1105.35,1196.22c-.29-.32-.8-1.06-1.58-2.72l-9.87-21.5c-.94-2.07-1.02-2.55-1.03-2.6,0-.1.3-.25.7-.33l.69-.15v-2.34h-10.78v2.38l.74.12c.43.07.65.18.65.32,0,.12-.06.62-.78,2.18l-10.3,22.37c-.66,1.48-1.09,2.1-1.33,2.36-.28.31-.69.51-1.24.6l-.73.13v2.37h9.42v-2.3l-.65-.18c-.19-.05-.79-.23-.79-.48,0-.05.02-.32.37-1.08l2.11-4.7h15.17l2.16,4.69c.36.81.5,1.21.56,1.37-.09.05-.26.12-.57.18l-.7.15v2.34h9.85v-2.39l-.75-.11c-.54-.08-.96-.31-1.31-.69ZM1083.1,1185.89l5.5-12.2,5.43,12.2h-10.93Z"/>
      <path class="st0" d="M1146.2,1193.51c-.19.72-.39.9-.43.93-.04.03-.3.19-1.13.19h-18.07v-24.03c0-.84.16-1.08.18-1.1.03-.04.21-.24.94-.43l.66-.17v-2.31h-9.28v2.31l.66.17c.73.19.91.39.94.43.02.02.18.26.18,1.1v24.8c0,.8-.16,1.06-.19,1.1-.03.04-.21.25-.93.44l-.66.17v2.31h25.57c.83,0,1.09.16,1.12.19.04.03.25.21.44.93l.17.66h2.31v-8.34h-2.31l-.17.66Z"/>
      <path class="st0" d="M1161.09,1168.88l.66.17c.73.19.91.39.94.43.02.02.18.26.18,1.1v24.8c0,.8-.16,1.06-.19,1.1-.03.04-.21.25-.93.44l-.66.17v2.31h9.28v-2.31l-.66-.17c-.72-.19-.9-.4-.93-.44-.03-.04-.19-.29-.19-1.1v-24.8c0-.84.16-1.08.18-1.1.03-.04.21-.24.94-.43l.66-.17v-2.31h-9.28v2.31Z"/>
      <path class="st0" d="M1212.41,1165.62c-.19.73-.39.91-.43.94h0s-.26.18-1.1.18h-24.22c-.84,0-1.08-.16-1.1-.18-.04-.03-.24-.21-.43-.94l-.17-.66h-2.31v8.34h2.31l.17-.66c.19-.75.4-.92.43-.94.02-.02.26-.18,1.11-.18h9.25v23.87c0,.8-.16,1.06-.19,1.1-.03.04-.21.25-.93.44l-.66.17v2.31h9.28v-2.31l-.66-.17c-.75-.19-.91-.4-.93-.42-.03-.04-.18-.3-.18-1.11v-23.87h9.25c.81,0,1.06.15,1.1.18.04.03.24.21.43.93l.17.66h2.31v-8.34h-2.31l-.17.66Z"/>
      <path class="st0" d="M1247.1,1168.97l.76.1c.32.04.44.13.45.15,0,0,.01.03.01.09,0,.01,0,.33-.6,1.21l-6.9,9.72-7.47-9.78c-.47-.6-.56-.99-.57-1.23,0,0,.1-.1.48-.16l.74-.12v-2.38h-10.52v2.29l.63.19c.63.19,1.17.48,1.63.89.51.46,1.34,1.45,2.47,2.93l9.39,12.24v10.29c0,.8-.16,1.06-.19,1.1-.03.04-.21.25-.93.44l-.66.17v2.31h9.28v-2.31l-.66-.17c-.75-.19-.91-.4-.93-.42-.03-.04-.18-.3-.18-1.11v-10.3l8.08-11.38c1.18-1.65,2.12-2.81,2.78-3.44.6-.58,1.27-.99,1.97-1.23l.6-.2v-2.26h-9.68v2.4Z"/>
      <path class="st0" d="M1320.93,1182.07c-1.01-1.91-2.43-3.45-4.24-4.61,1.29-.7,2.35-1.58,3.16-2.63,1.14-1.49,1.72-3.26,1.72-5.27,0-2.65-.93-4.95-2.77-6.85-2.29-2.39-5.55-3.6-9.68-3.6-3.49,0-6.36.91-8.54,2.69-2.45,1.96-3.69,4.55-3.69,7.68,0,2.84,1.22,5.12,3.62,6.83-1.52.58-2.79,1.26-3.8,2.01-1.49,1.11-2.66,2.48-3.49,4.07-.83,1.6-1.25,3.3-1.25,5.07,0,3.32,1.28,6.25,3.82,8.71,2.71,2.59,6.37,3.91,10.87,3.91,5.74,0,10.2-2.12,13.27-6.3.95,1.73,2.18,3.04,3.68,3.92,1.84,1.08,4.37,1.66,7.5,1.72l.9.02v-7.41h-2.36l-.13.72c-.06.33-.11.55-.14.69-.71-.02-1.55-.38-2.5-1.08-1.16-.83-2.2-2.28-3.11-4.32,1.44-2.68,2.62-4.57,3.5-5.64,1.15-1.39,1.84-1.85,2.19-2,.02.11.04.26.05.46l.05.83h2.46v-8.65l-.99.12c-4.03.5-7.43,3.5-10.11,8.91ZM1304.69,1165.46c1.1-.78,2.53-1.17,4.26-1.17,2.26.02,3.98.63,5.24,1.88.98.97,1.46,2.13,1.46,3.56,0,1.33-.5,2.41-1.53,3.3-1.14.99-2.62,1.48-4.53,1.48-2.06,0-3.72-.52-5.09-1.59-1.13-.89-1.69-2.04-1.69-3.52,0-1.73.62-3.03,1.87-3.94ZM1314.29,1191.72h0c-2.15,1.88-4.54,2.8-7.33,2.8-2.93,0-5.21-.86-6.98-2.63-1.26-1.24-1.87-2.81-1.87-4.8s.72-3.53,2.21-4.78c1.89-1.59,4.14-2.37,6.86-2.37,2.79.03,4.98.85,6.7,2.5.81.78,1.49,1.71,2.03,2.77.52,1.03.78,1.93.78,2.67,0,1.18-.8,2.47-2.39,3.84Z"/>
      <path class="st0" d="M1398.41,1162.24l.67.16c.43.1.94.29.94.59,0,.24-.09.84-.7,2.2l-11.46,26.2-11.38-26.2c-.53-1.19-.65-1.85-.65-2.19,0-.31.6-.5.96-.59l.68-.16v-2.46h-10.82v2.43l.64.18c.82.24,1.16.5,1.31.68.16.19.55.81,1.4,2.71l12.44,28.36c.6,1.36.65,1.84.65,1.95,0,.19,0,.51-.88.69l-.7.15v2.48h12.31v-2.48l-.7-.15c-.88-.19-.88-.49-.88-.64,0-.16.06-.69.62-2l12.22-27.53c1.12-2.57,1.55-3.3,1.71-3.51.12-.15.44-.45,1.34-.72l.63-.19v-2.42h-10.35v2.46Z"/>
      <path class="st0" d="M1447.32,1193.53c-.17.73-.37.89-.4.91-.04.03-.29.19-1.13.19h-18.32v-9.75h11.24c.81,0,1.06.15,1.1.18.04.03.24.21.43.93l.17.66h2.31v-8.34h-2.31l-.17.66c-.19.73-.39.91-.43.94-.02.02-.26.18-1.1.18h-11.24v-8.73h18.15c.85,0,1.08.16,1.11.18.02.02.23.19.43.94l.17.66h2.31v-8.34h-2.31l-.17.66c-.19.73-.39.91-.43.94-.02.02-.26.18-1.1.18h-25.66v2.31l.66.17c.73.19.91.39.94.43.02.02.18.26.18,1.1v24.8c0,.81-.15,1.07-.18,1.11-.02.02-.18.23-.93.42l-.66.17v2.31h25.85c.84,0,1.08.16,1.1.18.04.03.23.21.4.92l.16.68h2.36v-8.34h-2.36l-.16.68Z"/>
      <path class="st0" d="M1490.35,1168.88l.66.17c.73.19.91.39.94.43.02.02.18.26.18,1.1v19.28l-16.81-18.81c-.75-.82-.83-1.26-.83-1.41,0-.29.52-.5.84-.61l.61-.2v-2.27h-11.86v2.31l.66.17c.73.19.91.39.94.43.02.02.18.26.18,1.1v24.8c0,.81-.15,1.07-.18,1.11-.02.02-.18.23-.93.42l-.66.17v2.31h8.61v-2.31l-.66-.17c-.75-.19-.91-.4-.93-.42-.03-.04-.18-.3-.18-1.11v-20.79l18.49,20.54c.8.9,1.03,1.32,1.09,1.47-.07.06-.27.19-.76.31l-.67.17v2.32h9.89v-2.31l-.66-.17c-.75-.19-.91-.4-.93-.42-.03-.04-.18-.3-.18-1.11v-24.8c0-.84.16-1.08.18-1.1.03-.04.22-.24.94-.43l.66-.17v-2.31h-8.61v2.31Z"/>
      <path class="st0" d="M1540.97,1165.62c-.19.73-.39.91-.43.94h0s-.26.18-1.1.18h-24.22c-.84,0-1.08-.16-1.1-.18-.04-.03-.24-.21-.43-.94l-.17-.66h-2.31v8.34h2.31l.17-.66c.19-.75.4-.92.43-.94.02-.02.26-.18,1.11-.18h9.25v23.87c0,.8-.16,1.06-.19,1.1-.03.04-.21.25-.93.44l-.66.17v2.31h9.28v-2.31l-.66-.17c-.75-.19-.91-.4-.93-.42-.03-.04-.18-.3-.18-1.11v-23.87h9.25c.81,0,1.06.15,1.1.18.04.03.24.21.43.93l.17.66h2.31v-8.34h-2.31l-.17.66Z"/>
      <path class="st0" d="M1580.03,1168.88l.66.17c.72.19.9.4.93.44.03.04.19.29.19,1.1v15.95c0,2.18-.09,3.72-.26,4.55-.15.74-.45,1.34-.91,1.83-1.39,1.44-4.22,2.17-8.41,2.17-3.81,0-6.5-.61-8.01-1.82-.66-.51-1.07-1.12-1.27-1.87-.22-.86-.33-2.5-.33-4.87v-15.95c0-.8.16-1.06.19-1.1.03-.04.21-.25.93-.44l.66-.17v-2.31h-9.28v2.31l.66.17c.73.19.91.39.94.43.02.02.18.26.18,1.1v16.76c0,2.63.19,4.53.58,5.83.41,1.35,1.2,2.58,2.37,3.64,2.37,2.19,6.31,3.26,12.03,3.26,3.9,0,7.02-.5,9.29-1.49,2.37-1.03,4.03-2.68,4.93-4.88.53-1.29.79-3.36.79-6.36v-16.76c0-.84.16-1.08.18-1.1.03-.04.22-.24.94-.43l.66-.17v-2.31h-8.61v2.31Z"/>
      <path class="st0" d="M1634.5,1196.66c-.06-.04-.24-.16-.51-.57l-7.06-11.21c2.42-.41,4.34-1.26,5.72-2.53,1.68-1.55,2.53-3.66,2.53-6.29,0-3.21-1.21-5.69-3.59-7.37-1.07-.77-2.34-1.32-3.77-1.64-1.38-.31-3.17-.47-5.31-.47h-19.33v2.31l.66.17c.73.19.91.39.94.43.02.02.18.26.18,1.1v24.8c0,.81-.15,1.07-.18,1.11-.02.02-.18.23-.93.42l-.66.17v2.31h9.28v-2.31l-.66-.17c-.72-.19-.9-.4-.93-.44-.03-.04-.19-.29-.19-1.1v-10.05h9.93l6.89,10.89c.18.28.3.49.37.63-.07.02-.15.04-.25.06l-.7.14v2.35h9.45v-2.4l-.77-.1c-.8-.1-1.05-.22-1.11-.25ZM1621.63,1180.56h-10.94v-9.2h11.38c2.81,0,4.79.4,5.9,1.2,1.13.81,1.69,2.01,1.69,3.67s-.57,2.82-1.74,3.48c-.57.32-1.28.54-2.13.66-.91.13-2.31.2-4.16.2Z"/>
      <path class="st0" d="M1677.14,1193.53c-.17.73-.37.89-.4.91-.04.03-.29.19-1.13.19h-18.32v-9.75h11.24c.81,0,1.06.15,1.1.18.04.03.24.21.43.93l.17.66h2.31v-8.34h-2.31l-.17.66c-.19.73-.39.91-.43.94-.02.02-.26.18-1.1.18h-11.24v-8.73h18.15c.85,0,1.08.16,1.11.18.02.02.23.19.43.94l.17.66h2.31v-8.34h-2.31l-.17.66c-.19.73-.39.91-.43.94-.02.02-.26.18-1.1.18h-25.66v2.31l.66.17c.73.19.91.39.94.43.02.02.18.26.18,1.1v24.8c0,.81-.15,1.07-.18,1.11-.02.02-.18.23-.93.42l-.66.17v2.31h25.85c.84,0,1.08.16,1.1.18.04.03.23.21.4.92l.16.68h2.36v-8.34h-2.36l-.16.68Z"/>
      <path class="st0" d="M1721.73,1182.12c-1.1-.62-2.43-1.07-3.95-1.35-1.49-.27-3.6-.45-6.46-.54-3.3-.13-5.49-.24-6.5-.33-.94-.09-1.83-.27-2.63-.54-.7-.24-1.24-.63-1.65-1.2-.41-.56-.61-1.18-.61-1.88,0-1.64.86-2.91,2.61-3.86,1.91-1.02,4.3-1.53,7.08-1.53,3.5,0,6.49.66,8.92,1.95.96.5,1.25.81,1.33.91,0,.12-.04.38-.12.88l-.11.64,2.04,1.02,3.85-7.63-2.23-1.07-.41.69c-.17.29-.3.45-.38.54-.12-.04-.31-.11-.59-.23-4.02-1.78-8.08-2.68-12.06-2.68-4.4,0-8.1.92-10.98,2.74-2.96,1.87-4.46,4.48-4.46,7.76,0,1.87.51,3.52,1.54,4.91,1.01,1.33,2.34,2.31,3.98,2.91,1.22.44,2.53.76,3.9.95,1.34.18,3.57.34,6.63.46,2.56.09,4.31.19,5.21.3.87.1,1.66.28,2.34.51.65.24,1.16.62,1.55,1.18.39.56.59,1.17.59,1.88,0,.79-.24,1.53-.74,2.27-.51.76-1.19,1.35-2.06,1.8-1.94,1-4.42,1.51-7.39,1.51-3.26,0-6.46-.82-9.49-2.42-1.79-.95-2.24-1.43-2.35-1.58.01-.08.04-.21.11-.43l.27-1.08-1.99-1.16-4.4,7.38,1.99,1.3.5-.59c.31-.36.5-.53.61-.62.05.03.11.06.2.12,2.22,1.25,4.65,2.25,7.23,2.97,2.59.72,5.1,1.09,7.46,1.09,4.83,0,8.77-1.07,11.73-3.19,2.58-1.87,3.89-4.41,3.89-7.57,0-1.51-.35-2.93-1.05-4.21-.71-1.3-1.69-2.31-2.92-3Z"/>
      <path class="st0" d="M1797.3,1192.94c-.17.71-.37.88-.4.91h0s-.29.19-1.13.19h-23.31v-30.11c0-.84.16-1.08.18-1.1.03-.04.22-.24.94-.43l.66-.17v-2.45h-9.67v2.45l.66.17c.73.19.91.39.94.43.02.02.18.26.18,1.1v31.32c0,.85-.16,1.09-.17,1.11-.02.02-.18.23-.94.42l-.66.17v2.45h31.21c.83,0,1.09.16,1.12.19.04.03.24.21.41.91l.16.68h2.46v-8.92h-2.46l-.16.68Z"/>
      <path class="st0" d="M1846.07,1192.94c-.17.71-.37.88-.4.91h0s-.29.19-1.13.19h-23.31v-30.11c0-.84.16-1.08.18-1.1.03-.04.22-.24.94-.43l.66-.17v-2.45h-9.67v2.45l.66.17c.73.19.91.39.94.43.02.02.18.26.18,1.1v31.32c0,.85-.16,1.09-.17,1.11-.02.02-.18.23-.94.42l-.66.17v2.45h31.21c.83,0,1.09.16,1.12.19.04.03.24.21.41.91l.16.68h2.46v-8.92h-2.46l-.16.68Z"/>
      <path class="st0" d="M1897.42,1165.46h0c-.85-1.47-1.99-2.65-3.37-3.5-1.31-.83-2.81-1.42-4.47-1.73-1.6-.3-3.85-.46-6.68-.46h-20.8v2.44l.64.18c.67.19.9.38.96.45.11.13.17.37.17.7v32.07c0,.34-.06.6-.17.72-.06.07-.29.27-.96.45l-.65.18v2.44h9.67v-2.44l-.65-.18c-.67-.18-.89-.38-.96-.45-.11-.12-.17-.38-.17-.72v-13.24h12.91c3.6,0,6.31-.29,8.29-.88,2.03-.61,3.74-1.71,5.06-3.25,1.72-2.01,2.6-4.44,2.6-7.23,0-2.03-.48-3.9-1.42-5.54ZM1890.33,1175.91h0c-.72.42-1.54.71-2.45.86-.98.16-2.51.24-4.56.24h-13.32v-11.86h13.32c2.07,0,3.61.08,4.57.24.9.15,1.72.44,2.44.86,1.61.95,2.4,2.53,2.4,4.85s-.78,3.87-2.4,4.82Z"/>
    </g>
    <g>
      <path class="st0" d="M812.64,1091.92c3.07-95.15,3.07-190.68,0-285.82,24.55,3.45,50.26,4.22,72.13,0-3.84,54.09-4.6,173.41-2.69,242.85,56.4,0,181.47-5.76,233.26-14.58-1.53,23.02-1.53,38.36,0,57.55h-302.7Z"/>
      <path class="st0" d="M1165.98,1091.92c4.6-72.89,4.6-215.23,0-285.82,46.8,3.84,237.48,6.52,307.69,1.15-1.54,18.8-1.54,38.36,0,57.55-53.71-10.36-165.74-16.5-238.25-15.73-.77,27.24-1.15,54.48-.77,81.72,71.36,1.15,159.98-1.92,211.78-5.37-1.54,15.73-1.54,32.99,0,48.34-52.18-3.07-140.42-5.75-211.78-4.22,0,25.71,0,52.56,1.53,79.03,72.89.77,184.15-5.37,237.48-15.35-1.54,19.18-1.54,39.52,0,58.7h-307.69Z"/>
      <path class="st0" d="M1511.66,948.44c0-94.76,71.74-149.62,192.98-149.62s192.59,55.24,192.59,149.62-71.36,149.24-192.59,149.24-192.98-54.86-192.98-149.24ZM1831.24,949.97c0-67.52-47.57-107.81-126.6-107.81s-126.22,40.28-126.22,107.81,46.42,104.74,126.22,104.74,126.6-37.98,126.6-104.74Z"/>
    </g>
  </g>
  <g>
    <path class="st0" d="M673.96,924.22c3.92-3.99,6.07-9.27,6.07-14.87s-2.16-10.89-6.09-14.89c-3.92-3.99-9.16-6.25-14.75-6.35-.13,0-.26,0-.4,0-.12,0-.23,0-.35,0-.27,0-.56.01-.84.03-1.33.06-2.68.1-4,.1-19.68,0-37.95-7.15-52.84-20.67-.34-.31-.69-.6-1.04-.89,6-9.22,9.89-19.68,11.32-30.58,1.52-11.54.05-23.37-4.23-34.19-3.44-8.7-8.64-16.6-15.21-23.18.69-.61,1.34-1.27,1.94-1.97,6-6.96,6.85-16.93,2.11-24.81-8.39-13.96-19.82-25.73-33.05-34.03-10.52-6.6-22.21-11.03-34.27-13.04.97-1.92,1.66-3.99,2.01-6.13,1.52-9.2-3.28-18.47-11.67-22.55-15.58-7.58-32.6-11.59-49.21-11.59-30.75,0-58.81,13.49-77.59,37.16-8.4-10.89-18.67-19.6-30.61-25.94-13.94-7.4-29.38-11.16-45.88-11.16s-33.5,3.98-49.19,11.5c-8.51,4.08-13.26,13.09-11.81,22.42.32,2.08.94,4.06,1.82,5.91-8.34,1.24-16.48,3.68-24.32,7.29-19.39,8.92-35.04,22.88-45.27,40.36-4.59,7.85-3.68,17.75,2.28,24.63.48.56.99,1.09,1.53,1.59-12.65,12.42-20.15,29.65-20.36,47.28-.17,14.63,4.11,29.05,12.15,41.19-.27.21-.53.43-.79.66-15.6,13.57-34.08,20.75-53.46,20.75-1.46,0-2.95-.04-4.42-.12-.39-.02-.79-.03-1.19-.03-8.39,0-16.01,4.95-19.41,12.62-3.56,8.02-1.76,17.55,4.48,23.72,9.73,9.62,20.65,16.74,32.52,21.23-19.21,26.35-30,55.84-31.29,85.69-1.39,32.25,7.54,70.92,27.17,101.17.18.28.37.56.57.84.09.16.2.32.31.47l.52.7c4.5,6.02,9.49,16.31,15.26,25.78,14.56,23.86,41.55,54.43,74.44,87.37,27.8,27.84,58.85,45.86,89.79,62.78,29.38,16.07,50.66,24.92,71.43,24.94h.07c15.47,0,31.59-3.52,49.27-10.76,8.36-2.93,16.92-7.11,25.44-12.43,19.27-10.82,47.98-29.09,75.45-54.78,4.01-3.75,7.83-7.25,11.53-10.65,11.56-10.61,21.54-19.77,32.56-31.86,3.41-3.56,6.67-7.31,9.71-11.14,1.21-1.45,2.43-2.93,3.61-4.39,17.78-21.98,32.61-46.55,42.42-62.8,2.29-3.79,4.26-7.06,5.9-9.68.02-.02.03-.05.04-.07,38.65-59.03,37.31-127.73-3.03-181,12.3-4.57,23.54-11.95,32.82-21.61ZM589.99,835.06c-3.06,23.3-21.55,42.68-45.54,44.72,12.67-14.8,28.09-33.96,20.78-54.04-4.2-11.53-15.13-17.51-26.84-17.51-.32,0-.64,0-.96.01-10.23.28-19.14,4.96-27.04,11.03-5.04-4.17-9.66-11.82-15.31-15.38,12.21-15.61,30.29-24.44,48.68-24.44,9.43,0,18.95,4.99,27.78,11.6,13.29,9.93,20.75,26.49,18.45,44ZM480.42,1025.64c2.86,22.71-4.29,47.95-29.43,51.81-2.12.33-4.34.49-6.62.49-18.1,0-40.01-10.05-42.68-27.73-1.41-9.32.56-18.5,7.26-25.07,10.72-10.52,32.43-8.53,35.09-33.05-2.96.22-5.73.36-8.4.36-4.14,0-8.04-.34-12.03-1.28-10.76-2.52-21.47-3.78-32.18-3.78s-21.54,1.28-32.35,3.83c-3.74.88-7.47,1.27-11.23,1.27-3.41,0-6.84-.32-10.33-.86.31,13.12,10.13,22.32,22.13,26.01,10.34,3.18,18.01,11.43,20.02,20.98,2.28,10.8-1.29,21.25-9.97,28.26-9.03,7.29-20.28,11.1-31.83,11.1-2.07,0-4.15-.12-6.23-.37-16.22-1.93-28.1-13.86-31.08-30-1.79-9.7-1.04-19.7.43-29.67l4.97-33.72c-31.87-15.03-54.65-43.12-49.94-79.46,4.24-32.78,25.56-70.9,59.7-80.19,5.03-1.33,10.07-1.95,15.07-1.95,24.64,0,47.93,15.24,60.4,36.94,12.3-21.5,33.93-35.63,58.63-36.75.9-.04,1.79-.06,2.68-.06,41.55,0,67.95,44.58,72.6,81.99,4.48,35.95-17.76,65.45-49.89,79.7l5.2,41.2ZM454.6,1100.34c-3.29,16.3-12.11,29.19-25.93,38.3-11.42,7.53-24.62,11.21-37.74,11.21-16.24,0-32.37-5.65-44.84-16.63-9.96-8.76-16.93-19.26-19.25-32.94,3.6.51,7.15.76,10.65.76,14.8,0,28.68-4.43,41.65-12.22,3.91-2.54,8.03-3.86,12.15-3.86s7.84,1.19,11.57,3.65c12.72,8.03,26.76,12.44,41.49,12.44,3.38,0,6.79-.23,10.23-.71ZM577.45,764.62c-11.95-4.95-23.83-7.26-35.29-7.26-29.65,0-56.58,15.48-75,40.89-2.99-.38-5.9-.56-8.76-.56-11.67,0-22.44,2.99-33.46,7.83,9.22-32.63,29.73-59.39,59.77-72.86,9.48-4.12,19.17-6.07,28.66-6.07,25.63,0,49.76,14.19,64.08,38.01ZM315.4,687.64c25.88,0,50.23,12.02,65.07,36.76,4.91,8.18,7.71,16.57,11.03,26.14,3.91-11.51,8.12-21.78,15.14-31.38,15.48-21.13,38.59-31.59,62.83-31.59,13.33,0,27,3.16,39.91,9.45-16.16,2.05-31.02,7.56-45.13,17.15-17.42,11.74-30.55,26.46-41.75,43.81-14.05,21.64-23.08,44.94-31.05,70.2-12.06-38.94-28.4-78.25-58.96-104.88-16.4-14.11-35.16-23.19-57.11-26.25,13.03-6.24,26.72-9.41,40.01-9.41ZM240.78,732.8c9.47-4.36,19.04-6.33,28.44-6.32,24.21,0,47.23,13.06,64.11,31.97,11.5,13.56,19.56,29.09,24.99,47.26-11.28-5.07-22.41-8.12-34.26-8.12-2.98,0-6.01.19-9.09.59-18.98-25.5-44.84-40.94-74.23-40.94-11.45,0-23.45,2.35-35.77,7.35,8.37-14.31,21.08-25.01,35.81-31.79ZM209.88,791.29c9.07-6.79,18.9-9.75,28.65-9.75,18.64,0,37.01,10.8,49.32,26.3l-15.98,11.34c-8.08-6.76-18.63-11.01-28.64-11.01-8.17,0-15.98,2.83-21.8,9.44-5.91,6.71-7.74,15.15-6.35,24.23,1.72,11.28,8.14,20.98,15.47,29.53l6.98,8.15c-27.22-2.79-46.51-25.78-46.21-51.9.17-15.02,7.8-28.27,18.56-36.32ZM122.38,911.05c1.88.1,3.74.16,5.6.16,25.43,0,48.73-9.72,67.4-25.96,9.54,8.48,19.74,14.55,32.5,19.24-15.99,17.11-36.81,27.18-57.74,27.18-16.64,0-33.35-6.36-47.76-20.61ZM161.68,953.91c3.69.44,7.34.66,10.94.66,13.33,0,26.1-2.95,38.66-8.28l23.18-11.34c2.43,11.1,5.92,21.62,11.31,32.26-14.47,10.25-30.29,20.49-42.79,32.89-31.26,30.46-53.15,73.32-48.63,116.94-34.99-53.93-32.7-113.17,7.32-163.13ZM221.48,1106.68c-12.47,33.55-12.73,68.01-.86,102.5-17.44-15.93-30.49-36.06-38.23-58.42-16.81-48.52,2.25-97.55,36.66-132.73,11.38-11.63,23.89-21.1,37.92-30.28,5.95,6.9,12.18,13.16,18.99,19.11l-2.31,22.6-20.08,22.17c-14.46,15.96-24.4,34.39-32.08,55.05ZM277.76,1060.95c4,15.17,11.68,27.87,21.87,38.93l7.99,17.89c-30.96,48.57-39.63,105.4-10.13,158.23-70.69-55.71-82.44-145-19.74-215.06ZM341.28,1299.49c-10.63-9.39-18.25-20.83-24.58-33.34-19.73-39.63-17.72-84.81,3.05-124.06,14.99,18.34,40.15,29.19,62.34,32.51-14.78,15.67-25.85,33.13-32.55,53.09-8.15,23.28-14.5,47.03-8.26,71.8ZM390.48,1312.42c-8.03,0-15.35-.96-23.27-2.87-16.37-43.91,3.19-91.74,36.56-121.8,20.28-18.66,45.8-29.1,61.21-51.11,5.88,36.65-7.42,69.17-29.01,96.62-19.37,24.63-39.38,46.14-43.82,79.14-.56,0-1.12.01-1.68.01ZM488.77,1265.17c-18.68,19.01-44.11,39.96-71.27,44.5,8.87-32.95,30.94-51.36,48.55-77.74,16.17-24.97,24.49-53.05,23.71-83-1-16.86-4.07-32.53-8.31-48.89,10.52-11.19,19.2-23.93,23.49-39.27,14.16,16.13,24.85,34.19,31.49,54.27,19.12,59.72-5.35,108.48-47.65,150.13ZM603.7,1120.92c-2.58,34.08-18.57,65.67-44.78,88.94,19.97-68.67-2.48-132.92-51.48-180.5l-2.36-22.41c6.88-5.84,14.43-12.73,20.62-20,28.75,19.04,49.96,39.02,66.19,69.45,9.42,20.15,13.51,42.07,11.81,64.53ZM626.16,1117.3c2.61-66.97-38.19-115.47-91.02-150.84,4.98-10.18,8.73-22.05,10.94-33.73l23.67,12.12c12.67,5.29,25.54,9.73,38.91,9.73,3.45,0,6.93-.2,10.45-.62,41.19,48.53,41.51,111.01,7.05,163.34ZM610.89,931.73c-9.11,0-18.35-1.89-27.18-5.8-11.91-5.07-21.25-12.17-30.51-21.26,12.6-4.59,23.45-10.54,33.3-19.65,18.72,17,41.99,26.18,67.12,26.18,1.72,0,3.44-.04,5.18-.13-12.9,13.49-30.17,20.66-47.9,20.66Z"/>
    <path class="st0" d="M488.09,892.25c-.96-.56-1.93-1.11-2.92-1.6-.01,0-.03-.01-.04-.02-.97-.49-1.96-.93-2.95-1.35-.26-.11-.51-.21-.77-.32-1.01-.41-2.02-.79-3.05-1.13-.03,0-.06-.02-.09-.03-1-.33-2.01-.61-3.03-.87-.27-.07-.53-.13-.8-.2-1.04-.25-2.09-.47-3.15-.64-.04,0-.07,0-.11-.01-1.03-.17-2.06-.28-3.1-.38-.27-.02-.54-.05-.81-.07-1.07-.08-2.14-.13-3.22-.13,0,0-.01,0-.02,0-.43,0-.86.02-1.28.03-.37.01-.74.01-1.12.03-.43.02-.86.07-1.29.1-.38.03-.76.05-1.14.09-.48.05-.96.13-1.45.2-.33.05-.66.08-.99.14-.77.13-1.55.28-2.32.45-.04,0-.08.01-.11.02-.95.21-1.88.46-2.78.75-.91.29-1.79.61-2.66.97-2.59,1.08-4.97,2.47-7.12,4.13-7.87,6.09-12.57,15.79-12.56,26.65.02,12.3,1.99,24.15,3.51,36.81.04,0,.07,0,.11,0,.19,0,.38-.02.57-.03.19,0,.39,0,.58-.03.2-.02.4-.05.6-.08.19-.03.38-.04.56-.08.2-.04.38-.09.58-.13.18-.04.37-.08.54-.13.18-.05.36-.12.54-.18.18-.06.36-.11.53-.18.18-.07.35-.15.52-.23.17-.07.34-.14.5-.22.17-.08.33-.18.49-.27.16-.09.32-.17.47-.26.16-.1.3-.21.46-.31.15-.1.3-.2.45-.31.14-.11.28-.23.42-.35.14-.12.28-.23.42-.35.13-.12.25-.26.38-.39.13-.13.26-.25.38-.39.12-.14.23-.29.35-.43.11-.14.23-.27.33-.42.11-.15.21-.32.31-.48.1-.15.2-.29.29-.44.1-.17.19-.35.28-.53.08-.15.16-.29.23-.45.09-.19.16-.38.23-.58.06-.16.13-.31.19-.47.07-.2.12-.42.18-.63.04-.16.1-.31.14-.47.06-.24.1-.5.14-.75.02-.13.06-.26.08-.4.06-.39.09-.79.11-1.19l1.14-24.83c.79.15,1.56.26,2.33.36.18.02.35.04.53.06.75.08,1.49.15,2.22.18.09,0,.18,0,.27,0,.4.02.81.03,1.21.03.21,0,.41-.02.61-.02.29,0,.57-.01.85-.03.48-.02.96-.06,1.44-.11.26-.03.53-.05.78-.08.54-.07,1.07-.15,1.6-.25.18-.03.36-.06.54-.09.7-.14,1.38-.3,2.05-.49.16-.05.31-.1.47-.15.51-.15,1.01-.32,1.51-.5.23-.09.46-.18.69-.27.41-.17.83-.34,1.23-.53.24-.11.47-.22.71-.34.39-.19.77-.4,1.15-.61.22-.12.44-.25.66-.38.41-.25.81-.51,1.21-.78.17-.11.34-.22.5-.34.55-.39,1.09-.8,1.61-1.24.08-.07.16-.15.25-.22.44-.37.86-.76,1.28-1.16.17-.16.33-.34.5-.51.32-.33.64-.66.94-1,.17-.2.35-.4.52-.6.29-.34.57-.69.84-1.04.16-.21.32-.41.48-.63.28-.39.56-.79.83-1.2.13-.19.26-.38.38-.57.38-.61.75-1.22,1.1-1.86,3.42-5.35,8.26-8.67,14.53-11.07-.93-.65-1.88-1.25-2.84-1.83-.24-.14-.48-.29-.72-.43Z"/>
    <path class="st0" d="M325.94,886.23c-.74-.15-1.48-.27-2.23-.37-.25-.04-.49-.06-.74-.09-.5-.06-1-.12-1.5-.17-.29-.03-.58-.04-.87-.06-.46-.03-.91-.06-1.37-.08-.31-.01-.61-.02-.91-.02-.25,0-.51-.02-.76-.02-.11,0-.23.01-.34.01-1.06,0-2.12.05-3.18.13-.14.01-.28.03-.42.04-.96.09-1.91.21-2.87.35-.23.04-.45.07-.68.11-1.04.18-2.08.39-3.11.64-.2.05-.39.1-.59.15-.92.23-1.83.5-2.74.79-.19.06-.37.11-.56.18-1.01.34-2.02.71-3.02,1.12-.22.09-.44.18-.66.28-.92.39-1.83.8-2.73,1.24-.12.06-.24.11-.35.17-.98.49-1.95,1.02-2.91,1.58-.22.13-.45.26-.67.4-.97.58-1.93,1.18-2.87,1.82,6.66,2.66,11.55,6.38,14.85,12.12.37.64.76,1.26,1.16,1.86.13.19.26.37.39.56.29.41.58.81.88,1.19.16.2.32.4.48.59.3.37.61.72.92,1.07.16.18.32.35.48.52.38.4.77.78,1.17,1.15.11.1.21.2.31.3.51.46,1.03.89,1.56,1.3.14.11.28.2.42.3.41.3.82.59,1.24.87.19.13.39.25.59.37.38.24.77.46,1.17.68.21.11.41.23.62.34.43.22.86.42,1.3.62.18.08.35.16.53.24.62.26,1.25.5,1.89.71.09.03.17.05.26.08.56.18,1.12.34,1.69.49.22.05.44.1.66.15.45.1.91.2,1.37.27.25.04.49.08.74.12.47.07.94.12,1.41.17.23.02.46.05.7.07.6.04,1.21.07,1.83.07.1,0,.2,0,.31,0,.02,0,.03,0,.05,0,.68,0,1.37-.03,2.07-.07.2-.01.41-.03.61-.05.54-.05,1.08-.1,1.63-.18.21-.03.43-.05.64-.09.73-.11,1.47-.24,2.21-.4l.67,24.92c.01.42.05.83.1,1.24.02.14.05.27.08.4.05.26.09.52.15.77.04.15.09.29.13.43.07.23.13.46.22.69.06.15.13.28.19.43.09.21.17.42.27.62.07.14.16.27.23.41.11.19.21.39.33.57.09.14.19.27.28.4.12.17.24.35.37.51.1.13.21.25.32.37.14.16.27.32.42.47.11.12.24.22.35.33.15.14.3.29.46.43.13.11.26.2.39.31.16.13.32.26.48.38.14.1.28.18.42.27.17.11.33.23.51.33.15.09.3.16.45.24.18.09.35.19.53.28.15.07.31.13.47.2.18.08.36.16.54.23.16.06.33.11.49.16.18.06.36.12.54.17.17.05.34.08.51.12.18.04.36.09.54.12.17.03.34.05.51.07.18.03.37.06.55.07.17.02.34.02.51.02.16,0,.33.02.49.02.04,0,.08,0,.12,0,1.45-12.33,3.17-23.87,3.56-35.82.54-16.86-9.86-30.59-26.26-33.81Z"/>
  </g>
</svg>